<?xml version="1.0" encoding="utf-8"?>
<!-- Generator: Adobe Illustrator 26.2.1, SVG Export Plug-In . SVG Version: 6.00 Build 0)  -->
<svg version="1.1" id="레이어_1" xmlns="http://www.w3.org/2000/svg" xmlns:xlink="http://www.w3.org/1999/xlink" x="0px"
	 y="0px" viewBox="0 0 16 16" style="enable-background:new 0 0 16 16;" xml:space="preserve">
<style type="text/css">
	.st0{fill:#00559A;}
</style>
<g>
	<path class="st0" d="M7.17,9.18C7.24,9.27,7.3,9.35,7.38,9.43H5.25c0-0.08-0.08-0.25-0.17-0.38C4.99,8.91,4.5,8.19,4.5,8.19v0.99
		c0,0.08,0,0.16,0.04,0.25H2.77c0.04-0.08,0.04-0.16,0.04-0.25V6.82c0-0.08,0-0.16-0.04-0.25h1.77C4.5,6.66,4.5,6.74,4.5,6.82v1.03
		c0,0,0.57-0.72,0.7-0.89c0.1-0.13,0.22-0.31,0.22-0.39h1.85C7.14,6.66,7,6.8,6.89,6.94c-0.1,0.12-0.68,0.81-0.68,0.81
		S7.06,9.02,7.17,9.18L7.17,9.18z M7.73,6.82v2.36c0,0.08,0,0.16-0.04,0.25h3.43V8.63c-0.08,0.04-0.17,0.04-0.25,0.04H9.42V8.3h1.39
		V7.7H9.42V7.32h1.44c0.08,0,0.17,0,0.25,0.04V6.57H7.69C7.73,6.66,7.73,6.74,7.73,6.82L7.73,6.82z M15.86,9.18
		c0.03,0.09,0.08,0.17,0.14,0.25h-1.86c0.01-0.08-0.02-0.16-0.06-0.25c0,0-0.03-0.07-0.07-0.16L14,8.98h-1.07l-0.02,0.04
		c0,0-0.03,0.08-0.06,0.16c-0.03,0.08-0.06,0.16-0.05,0.25h-1.46c0.06-0.07,0.1-0.15,0.13-0.25l0.88-2.36
		c0.03-0.08,0.06-0.16,0.05-0.25h2.47c-0.02,0.08,0.02,0.16,0.05,0.25C15.01,7,15.8,9.02,15.86,9.18z M13.77,8.37l-0.26-0.66
		c-0.02-0.06-0.04-0.12-0.06-0.19c-0.01,0.06-0.03,0.13-0.05,0.19c-0.01,0.03-0.12,0.32-0.25,0.66H13.77z M1.93,6.57H0
		c0.04,0.08,0.04,0.16,0.04,0.25v2.36c0,0.08,0,0.16-0.04,0.25h1.93C1.89,9.34,1.89,9.26,1.89,9.18V6.82
		C1.89,6.74,1.89,6.66,1.93,6.57z"/>
</g>
</svg>
